<svg width="121" height="121" viewBox="0 0 121 121" fill="none" xmlns="http://www.w3.org/2000/svg">
<path d="M62.998 56.6309C75.0618 56.0238 86.1029 59.7998 91.6855 69.5362C97.1079 78.9931 95.7821 91.4108 89.627 104.496L76.6807 98.4073C81.9646 87.1744 81.3203 80.2206 79.2744 76.6524C77.3887 73.3637 72.8116 70.4612 63.7168 70.919L62.998 56.6309ZM55.7812 52.1475L55.8389 52.3789L56.0059 53.0704C59.4198 67.5529 56.0487 78.974 49.877 87.2012C43.8331 95.2578 35.4383 99.8367 29.3193 101.673L25.207 87.9707C28.9424 86.8498 34.5372 83.8089 38.4326 78.6163C42.0778 73.7571 44.5775 66.5945 42.0078 56.0469L36.3916 38.5655L50.0117 34.1895L55.7812 52.1475ZM32.1934 21.502C34.3997 17.7698 39.2139 16.5322 42.9463 18.7383C46.6789 20.9446 47.9163 25.7597 45.71 29.4922C43.5036 33.2247 38.6886 34.4622 34.9561 32.2559C31.2236 30.0495 29.9871 25.2345 32.1934 21.502Z" fill="#2C3E50"/>
</svg>
